Coordinates
version=1
nRows=27
nColumns=38
inDegrees=no

Units are S.I. units (second, meters, Newtons, ...)
If the header above contains a line with 'inDegrees', this indicates whether rotational values are in degrees (yes) or radians (no).

endheader
time	pelvis_tilt	pelvis_list	pelvis_rotation	pelvis_tx	pelvis_ty	pelvis_tz	hip_flexion_r	hip_adduction_r	hip_rotation_r	knee_angle_r	ankle_angle_r	subtalar_angle_r	mtp_angle_r	hip_flexion_l	hip_adduction_l	hip_rotation_l	knee_angle_l	ankle_angle_l	subtalar_angle_l	mtp_angle_l	lumbar_extension	lumbar_bending	lumbar_rotation	arm_flex_r	arm_add_r	arm_rot_r	elbow_flex_r	pro_sup_r	wrist_flex_r	wrist_dev_r	arm_flex_l	arm_add_l	arm_rot_l	elbow_flex_l	pro_sup_l	wrist_flex_l	wrist_dev_l
0.51	-3.09733	1.19018	1.47372	0.686688	0.981616	1.02937	0.635408	-0.0335298	-0.0568785	1.19968	-0.155932	0	0	0.484842	-0.0250521	-0.0747104	0.333302	-0.0965779	0	0	0.357019	-0.0174552	-0.0106115	-0.0459695	-0.209869	0.533815	0.348909	1.33154	0	0	-0.278202	-0.124149	-0.676018	0.389117	1.17167	0	0
0.52	-3.08184	1.1935	1.45925	0.686043	0.970263	1.03121	0.650117	-0.0296687	-0.0620685	1.18679	-0.137204	0	0	0.46604	-0.0306439	-0.0771767	0.327224	-0.0967244	0	0	0.352967	-0.0112716	-0.0138454	-0.0500862	-0.208526	0.5285	0.346767	1.32163	0	0	-0.276032	-0.124285	-0.679806	0.381011	1.17625	0	0
0.53	-3.06621	1.19553	1.44565	0.685384	0.958942	1.0329	0.664758	-0.0259981	-0.0683114	1.16918	-0.119586	0	0	0.448891	-0.0361294	-0.0795165	0.321759	-0.0984736	0	0	0.350596	-0.00532778	-0.017295	-0.0543015	-0.206742	0.522953	0.343006	1.30949	0	0	-0.273803	-0.124756	-0.683145	0.372606	1.18187	0	0
0.54	-3.05057	1.1967	1.43305	0.684747	0.947708	1.03443	0.679011	-0.0226222	-0.07514	1.14702	-0.104005	0	0	0.432543	-0.0413845	-0.0813306	0.315411	-0.0999611	0	0	0.349137	0.00028333	-0.0211131	-0.058256	-0.204777	0.519306	0.338051	1.29745	0	0	-0.271451	-0.125379	-0.686153	0.364522	1.18792	0	0
0.55	-3.03473	1.19725	1.42124	0.684146	0.936535	1.03584	0.692472	-0.0192418	-0.0819708	1.11996	-0.0907091	0	0	0.416403	-0.0467018	-0.0842771	0.307822	-0.102822	0	0	0.348307	0.00572567	-0.0253351	-0.0618219	-0.202699	0.517741	0.331881	1.28617	0	0	-0.268825	-0.12605	-0.689145	0.356739	1.1938	0	0
0.56	-3.0196	1.19671	1.41082	0.683575	0.925433	1.03702	0.705715	-0.0159704	-0.0886401	1.08798	-0.0811277	0	0	0.401234	-0.0518174	-0.0873231	0.299696	-0.104966	0	0	0.348679	0.0108484	-0.0298543	-0.0652105	-0.200675	0.518264	0.325049	1.27622	0	0	-0.266273	-0.126625	-0.692496	0.349834	1.19932	0	0
0.57	-3.00638	1.19488	1.40272	0.683024	0.914396	1.03791	0.718738	-0.0130396	-0.0939384	1.05106	-0.0743742	0	0	0.387924	-0.0562503	-0.0911427	0.292911	-0.10796	0	0	0.350538	0.0154099	-0.0345262	-0.0684692	-0.198794	0.520684	0.317892	1.26771	0	0	-0.264054	-0.127046	-0.69595	0.343928	1.20446	0	0
0.58	-2.99518	1.19219	1.39682	0.682447	0.903394	1.03855	0.731044	-0.0103584	-0.0976224	1.00937	-0.0693927	0	0	0.375744	-0.0598801	-0.0945127	0.286078	-0.110872	0	0	0.353251	0.0194619	-0.0394397	-0.0714786	-0.197107	0.523614	0.31087	1.25941	0	0	-0.26202	-0.127402	-0.699343	0.338578	1.20933	0	0
0.59	-2.98568	1.18938	1.39257	0.681857	0.892361	1.03901	0.741827	-0.00808714	-0.100692	0.963233	-0.0663135	0	0	0.363434	-0.062783	-0.0972716	0.278483	-0.113324	0	0	0.356223	0.0231227	-0.043973	-0.0743809	-0.195604	0.528509	0.303666	1.25285	0	0	-0.259857	-0.127801	-0.702408	0.333518	1.21417	0	0
0.6	-2.97767	1.18628	1.3896	0.681258	0.881325	1.03924	0.751048	-0.00593815	-0.103001	0.912267	-0.0657019	0	0	0.351203	-0.0653331	-0.0991966	0.270175	-0.115234	0	0	0.359595	0.0265578	-0.0479975	-0.0772483	-0.194397	0.534073	0.296628	1.24716	0	0	-0.257736	-0.128163	-0.705146	0.32925	1.21883	0	0
0.61	-2.9715	1.18285	1.38831	0.680638	0.870304	1.03922	0.75852	-0.0039644	-0.103722	0.856022	-0.067589	0	0	0.339363	-0.0676479	-0.100333	0.261619	-0.116059	0	0	0.363208	0.0295819	-0.0516325	-0.0800594	-0.193495	0.539148	0.290182	1.24134	0	0	-0.255765	-0.128415	-0.707752	0.326186	1.22306	0	0
0.62	-2.98026	1.17936	1.40203	0.679821	0.859008	1.03959	0.764242	-0.00684997	-0.100983	0.793898	-0.0733647	0	0	0.346449	-0.0600137	-0.13157	0.286521	-0.110918	0	0	0.370632	0.0264397	-0.0511258	-0.0838889	-0.189225	0.544698	0.277802	1.23346	0	0	-0.250158	-0.132526	-0.708338	0.314745	1.22928	0	0
0.63	-2.97769	1.17726	1.40415	0.67912	0.847708	1.03929	0.76602	-0.0055828	-0.0980834	0.729504	-0.0790605	0	0	0.333758	-0.0610629	-0.136591	0.279139	-0.109339	0	0	0.373551	0.0281855	-0.0531298	-0.0872367	-0.188374	0.550242	0.271352	1.22858	0	0	-0.247744	-0.133329	-0.709547	0.311858	1.23335	0	0
0.64	-2.97471	1.17828	1.406	0.678462	0.836304	1.03903	0.762322	-0.00465197	-0.0947929	0.66119	-0.0887635	0	0	0.318092	-0.0617727	-0.141715	0.273502	-0.110637	0	0	0.372139	0.0298279	-0.0552525	-0.0892363	-0.187916	0.558375	0.265055	1.22354	0	0	-0.244174	-0.134033	-0.710971	0.309058	1.23733	0	0
0.65	-2.96127	1.17987	1.39605	0.677918	0.825188	1.0379	0.7564	0.000314169	-0.0934885	0.590635	-0.101101	0	0	0.281479	-0.0702475	-0.117296	0.23331	-0.114073	0	0	0.365792	0.0366097	-0.0602567	-0.0890836	-0.191295	0.568198	0.264912	1.22048	0	0	-0.244453	-0.130384	-0.714949	0.317062	1.23826	0	0
0.66	-2.97737	1.18131	1.41642	0.677034	0.813578	1.03768	0.750054	-0.00573368	-0.0906347	0.515446	-0.117849	0	0	0.286955	-0.0600801	-0.14816	0.263973	-0.108171	0	0	0.366364	0.0304578	-0.0594228	-0.0907444	-0.187671	0.574689	0.254572	1.21377	0	0	-0.238865	-0.134337	-0.714538	0.309127	1.24041	0	0
0.67	-2.9696	1.18631	1.41126	0.676467	0.802137	1.03626	0.739046	-0.00342236	-0.0920619	0.443222	-0.134766	0	0	0.245365	-0.064537	-0.134875	0.228231	-0.111105	0	0	0.356141	0.034984	-0.0632998	-0.089591	-0.191148	0.582774	0.255026	1.20896	0	0	-0.239575	-0.130863	-0.717117	0.319174	1.23936	0	0
0.68	-2.97305	1.19256	1.41968	0.675799	0.790597	1.03518	0.726791	-0.00636649	-0.0945934	0.371764	-0.151963	0	0	0.226593	-0.062594	-0.136121	0.227368	-0.110725	0	0	0.345842	0.0335446	-0.067783	-0.0873295	-0.191518	0.591165	0.251303	1.20429	0	0	-0.23779	-0.130507	-0.717741	0.323886	1.23745	0	0
0.69	-2.97753	1.19863	1.42959	0.675113	0.778919	1.03382	0.71485	-0.00961176	-0.0985397	0.30333	-0.167507	0	0	0.20842	-0.0607185	-0.134358	0.22612	-0.107724	0	0	0.335808	0.0316752	-0.0734014	-0.084884	-0.192102	0.600114	0.248148	1.20067	0	0	-0.237217	-0.129986	-0.718046	0.329995	1.23409	0	0
0.7	-2.98256	1.2042	1.44032	0.674397	0.767142	1.03216	0.70388	-0.0127955	-0.103218	0.239484	-0.180745	0	0	0.192146	-0.0589362	-0.131096	0.227416	-0.105924	0	0	0.326355	0.0296448	-0.0799889	-0.0823313	-0.192915	0.609315	0.245397	1.19823	0	0	-0.237892	-0.129197	-0.718462	0.337633	1.22852	0	0
0.71	-2.98808	1.20832	1.45138	0.673516	0.755172	1.03019	0.695207	-0.0155882	-0.108137	0.182358	-0.191312	0	0	0.177771	-0.0577281	-0.12623	0.22928	-0.101966	0	0	0.319252	0.0275691	-0.0868057	-0.0806192	-0.193841	0.617684	0.24315	1.19629	0	0	-0.240181	-0.128394	-0.718642	0.346484	1.22059	0	0
0.72	-2.99171	1.21041	1.46083	0.672505	0.74302	1.0279	0.689323	-0.0175351	-0.113803	0.132715	-0.197643	0	0	0.166926	-0.05779	-0.118801	0.231622	-0.0965864	0	0	0.315297	0.0263894	-0.0939685	-0.0801053	-0.195102	0.623049	0.241656	1.19479	0	0	-0.243234	-0.127726	-0.71884	0.354763	1.21235	0	0
0.73	-2.99394	1.21205	1.46813	0.671369	0.730626	1.02553	0.684242	-0.0183426	-0.11797	0.0900019	-0.203117	0	0	0.157257	-0.0597657	-0.117115	0.240062	-0.0934006	0	0	0.31245	0.0261696	-0.10044	-0.0801476	-0.196668	0.626741	0.240197	1.19308	0	0	-0.246511	-0.127334	-0.717822	0.361906	1.20338	0	0
0.74	-2.99696	1.21246	1.47516	0.670063	0.717978	1.02315	0.681428	-0.0184835	-0.120122	0.055996	-0.207011	0	0	0.146645	-0.0614003	-0.114323	0.246282	-0.091272	0	0	0.312384	0.0263385	-0.10471	-0.0817574	-0.198163	0.628463	0.238231	1.19176	0	0	-0.2489	-0.12778	-0.716059	0.365648	1.19542	0	0
0.75	-2.99912	1.21192	1.4804	0.668628	0.705152	1.02079	0.680271	-0.0176183	-0.119617	0.0301449	-0.210735	0	0	0.135856	-0.0638719	-0.111794	0.251861	-0.0891516	0	0	0.314256	0.0274488	-0.107266	-0.0844937	-0.199943	0.628229	0.23621	1.1903	0	0	-0.250527	-0.12862	-0.713675	0.366827	1.18758	0	0
0.76	-3.00052	1.2104	1.48441	0.667133	0.692207	1.01853	0.680999	-0.0161465	-0.117298	0.0145877	-0.212677	0	0	0.128192	-0.0671056	-0.109345	0.259911	-0.088197	0	0	0.318051	0.0293099	-0.108495	-0.088215	-0.201952	0.624069	0.233984	1.18677	0	0	-0.251026	-0.129771	-0.711567	0.364973	1.18141	0	0
0.77	-3.00181	1.20832	1.4875	0.66562	0.67904	1.01649	0.682642	-0.0138615	-0.112789	0.00894374	-0.213159	0	0	0.122712	-0.0704297	-0.1103	0.271141	-0.087985	0	0	0.323768	0.0319832	-0.107625	-0.0936936	-0.204329	0.616213	0.23205	1.18115	0	0	-0.250022	-0.131637	-0.706763	0.35857	1.17421	0	0
